C:\Users\Nicos\Documents\OpenSimProjects\SprintingProject\Study1\PredictiveResults\IC_pred_Sprinting_optimum_26-October-2023__23-37-47_p02_maxVel_01___IKTD_Minus_4_GRF.mot
version=1
nRows=118
nColumns=10
inDegrees=yes
endheader
time	ground_force_vx	ground_force_vy	ground_force_vz	ground_force_px	ground_force_py	ground_force_pz	ground_torque_x	ground_torque_y	ground_torque_z
0.056000	-74.841532	39.999999	14.301097	0.353718	0.000000	0.450012	-18.000464	-38.736875	14.148734
0.056647	-111.844284	60.468153	19.165157	0.355231	0.000000	0.449746	-27.195313	-57.106286	21.480156
0.058693	-254.293726	144.237284	18.101879	0.358733	0.000000	0.449017	-64.765043	-120.630420	51.742714
0.060176	-383.383294	228.651103	-2.895828	0.359262	0.000000	0.449179	-102.705203	-170.981260	82.145657
0.060823	-460.887802	282.695963	-16.059696	0.357976	0.000000	0.449592	-127.097818	-201.129251	101.198272
0.062869	-747.868205	512.123257	-73.039611	0.352583	0.000000	0.450371	-230.645643	-309.754771	180.565779
0.064352	-953.277312	745.314457	-119.970856	0.348522	0.000000	0.451113	-336.221258	-385.504784	259.758162
0.064999	-1026.331206	865.840121	-145.022736	0.346826	0.000000	0.451359	-390.804896	-409.291628	300.295992
0.067045	-1151.636260	1303.718625	-206.102207	0.340876	0.000000	0.451811	-589.033885	-440.940797	444.405890
0.068527	-1143.564786	1708.007860	-213.309528	0.332256	0.000000	0.451707	-771.518934	-425.714908	567.495771
0.069175	-1105.972074	1894.651207	-213.251947	0.328349	0.000000	0.451683	-855.780942	-402.793532	622.107131
0.071221	-850.735966	2466.784731	-153.023495	0.318281	0.000000	0.451741	-1114.348330	-286.296015	785.130559
0.072703	-580.157274	2833.333386	-96.763689	0.312801	0.000000	0.451734	-1279.913287	-170.194016	886.270061
0.073351	-449.419496	2979.245086	-72.959888	0.310863	0.000000	0.451724	-1345.795125	-116.052563	926.137671
0.075396	-235.771278	3402.684350	-59.170267	0.306207	0.000000	0.451490	-1536.276642	-21.879006	1041.926128
0.076879	-193.487336	3669.856879	-118.900538	0.304138	0.000000	0.451174	-1655.743368	12.451786	1116.141623
0.077527	-129.441629	3766.772423	-160.930570	0.303571	0.000000	0.450984	-1698.753414	46.940480	1143.483365
0.079572	15.361279	4013.459645	-279.260929	0.302938	0.000000	0.450406	-1807.684448	127.095575	1215.830756
0.081055	74.968970	4139.155633	-201.300607	0.303423	0.000000	0.450786	-1865.872622	144.247291	1255.914596
0.081702	122.279295	4179.196425	-255.586451	0.303981	0.000000	0.450590	-1883.103795	173.292989	1270.396227
0.083748	231.272920	4232.445712	-254.567558	0.306022	0.000000	0.450754	-1907.791374	221.240841	1295.222162
0.085231	301.178271	4211.905660	-245.925435	0.308017	0.000000	0.450934	-1899.292365	249.844308	1297.339231
0.085878	320.563597	4193.294496	-244.094852	0.309101	0.000000	0.451022	-1891.266934	257.802141	1296.152015
0.087924	386.604928	4080.685953	-230.913106	0.313229	0.000000	0.451366	-1841.882919	283.875671	1278.187657
0.089407	430.136200	3952.301257	-213.660786	0.316871	0.000000	0.451703	-1785.265482	298.877868	1252.370215
0.090054	455.331090	3884.190187	-204.009613	0.318647	0.000000	0.451872	-1755.157323	307.174786	1237.683906
0.092100	522.370476	3634.832279	-177.878333	0.325009	0.000000	0.452352	-1644.221875	327.229161	1181.351427
0.093582	531.701135	3429.241027	-165.327040	0.330209	0.000000	0.452730	-1552.519752	325.823801	1132.366823
0.094230	553.756965	3334.308778	-146.825125	0.332747	0.000000	0.453015	-1510.491391	331.206100	1109.480824
0.096276	584.239082	3028.560910	-125.164729	0.341337	0.000000	0.453663	-1373.946408	333.380766	1033.760643
0.097758	592.858213	2805.054004	-111.929777	0.348040	0.000000	0.454163	-1273.952903	330.104017	976.269819
0.098406	599.327055	2709.209074	-102.602423	0.351073	0.000000	0.454411	-1231.094727	328.335400	951.129431
0.100451	605.951410	2424.798233	-89.119995	0.360408	0.000000	0.455146	-1103.637654	320.978602	873.916824
0.101934	612.296389	2257.509421	-81.639009	0.365209	0.000000	0.455552	-1028.413286	318.734949	824.462673
0.102582	615.899102	2189.115845	-76.104024	0.366960	0.000000	0.455707	-997.594332	317.913414	803.318288
0.104627	628.119095	1968.213252	-56.176573	0.372685	0.000000	0.456255	-898.006397	314.907998	733.523127
0.106110	630.511436	1801.010652	-40.301208	0.377206	0.000000	0.456718	-822.554795	309.561286	679.351882
0.106757	629.180206	1725.151117	-34.030840	0.379252	0.000000	0.456923	-788.262003	306.542326	654.267436
0.108803	618.370811	1491.728384	-11.348381	0.386056	0.000000	0.457668	-682.716093	292.507680	575.890726
0.110286	602.230021	1340.322300	4.065950	0.390751	0.000000	0.458220	-614.163103	278.633272	523.732395
0.110933	589.097046	1277.338693	7.925130	0.392694	0.000000	0.458437	-585.579405	270.792590	501.602654
0.112979	551.610253	1085.289067	23.107641	0.398892	0.000000	0.459242	-498.410170	247.020846	432.913162
0.114462	527.974797	960.109215	30.046702	0.402616	0.000000	0.459878	-441.532743	232.279644	386.554982
0.115109	515.506459	907.026681	34.311988	0.403788	0.000000	0.460072	-417.298003	224.491586	366.246837
0.117155	466.704260	757.440547	45.936285	0.405955	0.000000	0.460211	-348.582483	196.547519	307.487089
0.118637	426.611084	660.382368	52.913800	0.406352	0.000000	0.460009	-303.782081	174.900847	268.347499
0.119285	409.994391	620.235296	56.395392	0.406312	0.000000	0.459940	-285.271114	165.745191	252.009120
0.121331	352.936902	504.770524	61.829504	0.404416	0.000000	0.459778	-232.082171	137.280174	204.137126
0.122813	302.776201	420.294119	59.901001	0.402200	0.000000	0.459541	-193.142248	115.047675	169.042179
0.123461	278.525002	382.990363	55.038916	0.401078	0.000000	0.459303	-175.908787	105.853221	153.608857
0.125506	200.565781	266.197530	52.860528	0.397196	0.000000	0.459003	-122.185451	71.064305	105.732605
0.126989	138.992004	184.640189	52.027512	0.393915	0.000000	0.458740	-84.701916	43.266839	72.732517
0.127636	109.106615	150.931363	47.444478	0.392251	0.000000	0.458389	-69.185249	31.403128	59.202916
0.129682	39.822851	60.422609	28.272007	0.387605	0.000000	0.456547	-27.585760	7.222623	23.420123
0.131165	8.903241	15.693214	9.311869	0.384667	0.000000	0.453937	-7.123734	0.459540	6.036668
0.131812	2.869113	5.814364	3.761116	0.383664	0.000000	0.452399	-2.630413	-0.145021	2.230762
0.133858	0.036097	0.204358	0.156200	0.383146	0.000000	0.446182	-0.091181	-0.043742	0.078299
0.135341	-0.000610	0.004821	0.003674	0.386401	0.000000	0.441351	-0.002128	-0.001689	0.001863
0.135988	-0.000212	0.000785	0.000572	0.388995	0.000000	0.439551	-0.000345	-0.000315	0.000305
0.138034	-0.000001	0.000002	0.000001	0.401399	0.000000	0.436471	-0.000001	-0.000001	0.000001
0.139516	-0.000000	0.000000	0.000000	0.413740	0.000000	0.436756	-0.000000	-0.000000	0.000000
0.140164	-0.000000	0.000000	0.000000	0.419949	0.000000	0.437380	-0.000000	-0.000000	0.000000
0.142210	-0.000000	0.000000	0.000000	0.442792	0.000000	0.440367	-0.000000	-0.000000	0.000000
0.143692	-0.000000	0.000000	-0.000000	NaN	0.000000	NaN	0.000000	0.000000	0.000000
0.144340	-0.000000	0.000000	-0.000000	NaN	0.000000	NaN	0.000000	0.000000	0.000000
0.146385	-0.000000	0.000000	-0.000000	NaN	0.000000	NaN	0.000000	0.000000	0.000000
0.147868	-0.000000	0.000000	-0.000000	NaN	0.000000	NaN	0.000000	0.000000	0.000000
0.148516	-0.000000	0.000000	-0.000000	NaN	0.000000	NaN	0.000000	0.000000	0.000000
0.150561	-0.000000	0.000000	0.000000	NaN	0.000000	NaN	0.000000	0.000000	0.000000
0.152044	-0.000000	0.000000	0.000000	NaN	0.000000	NaN	0.000000	0.000000	0.000000
0.152691	-0.000000	0.000000	0.000000	NaN	0.000000	NaN	0.000000	0.000000	0.000000
0.154737	-0.000000	0.000000	0.000000	NaN	0.000000	NaN	0.000000	0.000000	0.000000
0.156220	-0.000000	0.000000	0.000000	NaN	0.000000	NaN	0.000000	0.000000	0.000000
0.156867	-0.000000	0.000000	0.000000	NaN	0.000000	NaN	0.000000	0.000000	0.000000
0.158913	-0.000000	0.000000	0.000000	NaN	0.000000	NaN	0.000000	0.000000	0.000000
0.160396	-0.000000	0.000000	0.000000	NaN	0.000000	NaN	0.000000	0.000000	0.000000
0.161043	-0.000000	0.000000	0.000000	NaN	0.000000	NaN	0.000000	0.000000	0.000000
0.163089	-0.000000	0.000000	0.000000	NaN	0.000000	NaN	0.000000	0.000000	0.000000
0.164571	-0.000000	0.000000	0.000000	NaN	0.000000	NaN	0.000000	0.000000	0.000000
0.165219	-0.000000	0.000000	0.000000	NaN	0.000000	NaN	0.000000	0.000000	0.000000
0.167265	-0.000000	0.000000	0.000000	NaN	0.000000	NaN	0.000000	0.000000	0.000000
0.168747	-0.000000	0.000000	0.000000	NaN	0.000000	NaN	0.000000	0.000000	0.000000
0.169395	-0.000000	0.000000	0.000000	NaN	0.000000	NaN	0.000000	0.000000	0.000000
0.171440	-0.000000	0.000000	0.000000	NaN	0.000000	NaN	0.000000	0.000000	0.000000
0.172923	-0.000000	0.000000	0.000000	NaN	0.000000	NaN	0.000000	0.000000	0.000000
0.173571	-0.000000	0.000000	0.000000	NaN	0.000000	NaN	0.000000	0.000000	0.000000
0.175616	-0.000000	0.000000	0.000000	NaN	0.000000	NaN	0.000000	0.000000	0.000000
0.177099	-0.000000	0.000000	0.000000	NaN	0.000000	NaN	0.000000	0.000000	0.000000
0.177746	-0.000000	0.000000	0.000000	NaN	0.000000	NaN	0.000000	0.000000	0.000000
0.179792	-0.000000	0.000000	0.000000	NaN	0.000000	NaN	0.000000	0.000000	0.000000
0.181275	-0.000000	0.000000	0.000000	NaN	0.000000	NaN	0.000000	0.000000	0.000000
0.181922	-0.000000	0.000000	0.000000	NaN	0.000000	NaN	0.000000	0.000000	0.000000
0.183968	-0.000000	0.000000	-0.000000	NaN	0.000000	NaN	0.000000	0.000000	0.000000
0.185451	-0.000000	0.000000	-0.000000	NaN	0.000000	NaN	0.000000	0.000000	0.000000
0.186098	-0.000000	0.000000	-0.000000	NaN	0.000000	NaN	0.000000	0.000000	0.000000
0.188144	-0.000000	0.000000	-0.000000	NaN	0.000000	NaN	0.000000	0.000000	0.000000
0.189626	-0.000000	0.000000	-0.000000	NaN	0.000000	NaN	0.000000	0.000000	0.000000
0.190274	-0.000000	0.000000	-0.000000	NaN	0.000000	NaN	0.000000	0.000000	0.000000
0.192320	-0.000000	0.000000	-0.000000	NaN	0.000000	NaN	0.000000	0.000000	0.000000
0.193802	-0.000000	0.000000	-0.000000	NaN	0.000000	NaN	0.000000	0.000000	0.000000
0.194450	-0.000000	0.000000	-0.000000	NaN	0.000000	NaN	0.000000	0.000000	0.000000
0.196495	-0.000000	0.000000	-0.000000	NaN	0.000000	NaN	0.000000	0.000000	0.000000
0.197978	-0.000000	0.000000	-0.000000	NaN	0.000000	NaN	0.000000	0.000000	0.000000
0.198625	-0.000000	0.000000	-0.000000	NaN	0.000000	NaN	0.000000	0.000000	0.000000
0.200671	-0.000000	0.000000	-0.000000	NaN	0.000000	NaN	0.000000	0.000000	0.000000
0.202154	-0.000000	0.000000	-0.000000	NaN	0.000000	NaN	0.000000	0.000000	0.000000
0.202801	-0.000000	0.000000	-0.000000	NaN	0.000000	NaN	0.000000	0.000000	0.000000
0.204847	-0.000000	0.000000	-0.000000	NaN	0.000000	NaN	0.000000	0.000000	0.000000
0.206330	-0.000000	0.000000	-0.000000	NaN	0.000000	NaN	0.000000	0.000000	0.000000
0.206977	-0.000000	0.000000	-0.000000	NaN	0.000000	NaN	0.000000	0.000000	0.000000
0.209023	-0.000000	0.000000	-0.000000	NaN	0.000000	NaN	0.000000	0.000000	0.000000
0.210505	-0.000000	0.000000	-0.000000	NaN	0.000000	NaN	0.000000	0.000000	0.000000
0.211153	-0.000000	0.000000	-0.000000	NaN	0.000000	NaN	0.000000	0.000000	0.000000
0.213199	-0.000000	0.000000	-0.000000	NaN	0.000000	NaN	0.000000	0.000000	0.000000
0.214681	-0.000000	0.000000	-0.000000	NaN	0.000000	NaN	0.000000	0.000000	0.000000
0.215329	-0.000000	0.000000	-0.000000	NaN	0.000000	NaN	0.000000	0.000000	0.000000
0.217375	-0.000000	0.000000	-0.000000	NaN	0.000000	NaN	0.000000	0.000000	0.000000
0.218857	-0.000000	0.000000	-0.000000	NaN	0.000000	NaN	0.000000	0.000000	0.000000
